<mxfile host="app.diagrams.net" agent="Mozilla/5.0 (Windows NT 10.0; Win64; x64) AppleWebKit/537.36 (KHTML, like Gecko) Chrome/130.0.0.0 Safari/537.36" version="24.8.3">
  <diagram name="Page-1" id="e56a1550-8fbb-45ad-956c-1786394a9013">
    <mxGraphModel dx="1434" dy="780" grid="1" gridSize="10" guides="1" tooltips="1" connect="1" arrows="1" fold="1" page="1" pageScale="1" pageWidth="1100" pageHeight="850" background="none" math="0" shadow="0">
      <root>
        <mxCell id="0" />
        <mxCell id="1" parent="0" />
        <mxCell id="l7Y0X0BqeV2ixzSoCU-9-3" value="Students" style="swimlane;fontStyle=0;childLayout=stackLayout;horizontal=1;startSize=30;horizontalStack=0;resizeParent=1;resizeParentMax=0;resizeLast=0;collapsible=1;marginBottom=0;whiteSpace=wrap;html=1;" parent="1" vertex="1">
          <mxGeometry x="270" y="220" width="140" height="120" as="geometry" />
        </mxCell>
        <mxCell id="l7Y0X0BqeV2ixzSoCU-9-4" value="Id : integer" style="text;strokeColor=none;fillColor=none;align=left;verticalAlign=middle;spacingLeft=4;spacingRight=4;overflow=hidden;points=[[0,0.5],[1,0.5]];portConstraint=eastwest;rotatable=0;whiteSpace=wrap;html=1;" parent="l7Y0X0BqeV2ixzSoCU-9-3" vertex="1">
          <mxGeometry y="30" width="140" height="30" as="geometry" />
        </mxCell>
        <mxCell id="l7Y0X0BqeV2ixzSoCU-9-5" value="Name : text" style="text;strokeColor=none;fillColor=none;align=left;verticalAlign=middle;spacingLeft=4;spacingRight=4;overflow=hidden;points=[[0,0.5],[1,0.5]];portConstraint=eastwest;rotatable=0;whiteSpace=wrap;html=1;" parent="l7Y0X0BqeV2ixzSoCU-9-3" vertex="1">
          <mxGeometry y="60" width="140" height="30" as="geometry" />
        </mxCell>
        <mxCell id="l7Y0X0BqeV2ixzSoCU-9-6" value="DateOfBirth : text" style="text;strokeColor=none;fillColor=none;align=left;verticalAlign=middle;spacingLeft=4;spacingRight=4;overflow=hidden;points=[[0,0.5],[1,0.5]];portConstraint=eastwest;rotatable=0;whiteSpace=wrap;html=1;" parent="l7Y0X0BqeV2ixzSoCU-9-3" vertex="1">
          <mxGeometry y="90" width="140" height="30" as="geometry" />
        </mxCell>
        <mxCell id="l7Y0X0BqeV2ixzSoCU-9-7" value="Subjects" style="swimlane;fontStyle=0;childLayout=stackLayout;horizontal=1;startSize=30;horizontalStack=0;resizeParent=1;resizeParentMax=0;resizeLast=0;collapsible=1;marginBottom=0;whiteSpace=wrap;html=1;" parent="1" vertex="1">
          <mxGeometry x="670" y="220" width="140" height="90" as="geometry" />
        </mxCell>
        <mxCell id="l7Y0X0BqeV2ixzSoCU-9-8" value="Id : integer" style="text;strokeColor=none;fillColor=none;align=left;verticalAlign=middle;spacingLeft=4;spacingRight=4;overflow=hidden;points=[[0,0.5],[1,0.5]];portConstraint=eastwest;rotatable=0;whiteSpace=wrap;html=1;" parent="l7Y0X0BqeV2ixzSoCU-9-7" vertex="1">
          <mxGeometry y="30" width="140" height="30" as="geometry" />
        </mxCell>
        <mxCell id="l7Y0X0BqeV2ixzSoCU-9-9" value="Name : text" style="text;strokeColor=none;fillColor=none;align=left;verticalAlign=middle;spacingLeft=4;spacingRight=4;overflow=hidden;points=[[0,0.5],[1,0.5]];portConstraint=eastwest;rotatable=0;whiteSpace=wrap;html=1;" parent="l7Y0X0BqeV2ixzSoCU-9-7" vertex="1">
          <mxGeometry y="60" width="140" height="30" as="geometry" />
        </mxCell>
        <mxCell id="l7Y0X0BqeV2ixzSoCU-9-11" value="Grades" style="swimlane;fontStyle=0;childLayout=stackLayout;horizontal=1;startSize=30;horizontalStack=0;resizeParent=1;resizeParentMax=0;resizeLast=0;collapsible=1;marginBottom=0;whiteSpace=wrap;html=1;" parent="1" vertex="1">
          <mxGeometry x="480" y="425" width="140" height="170" as="geometry" />
        </mxCell>
        <mxCell id="l7Y0X0BqeV2ixzSoCU-9-12" value="Id : integer&lt;div&gt;&lt;br&gt;&lt;div&gt;StudentId (FK): integer&amp;nbsp;&amp;nbsp;&lt;/div&gt;&lt;div&gt;&lt;br&gt;&lt;/div&gt;&lt;div&gt;SubjectId (FK): integer&lt;/div&gt;&lt;/div&gt;&lt;div&gt;&lt;br&gt;&lt;/div&gt;&lt;div&gt;GradeValue: text&lt;/div&gt;" style="text;strokeColor=none;fillColor=none;align=left;verticalAlign=middle;spacingLeft=4;spacingRight=4;overflow=hidden;points=[[0,0.5],[1,0.5]];portConstraint=eastwest;rotatable=0;whiteSpace=wrap;html=1;" parent="l7Y0X0BqeV2ixzSoCU-9-11" vertex="1">
          <mxGeometry y="30" width="140" height="140" as="geometry" />
        </mxCell>
        <mxCell id="l7Y0X0BqeV2ixzSoCU-9-18" value="" style="endArrow=classic;html=1;rounded=0;entryX=0.993;entryY=0.318;entryDx=0;entryDy=0;entryPerimeter=0;exitX=0.582;exitY=0.95;exitDx=0;exitDy=0;exitPerimeter=0;" parent="1" source="l7Y0X0BqeV2ixzSoCU-9-9" target="l7Y0X0BqeV2ixzSoCU-9-12" edge="1">
          <mxGeometry width="50" height="50" relative="1" as="geometry">
            <mxPoint x="620" y="500" as="sourcePoint" />
            <mxPoint x="750" y="313" as="targetPoint" />
            <Array as="points">
              <mxPoint x="750" y="500" />
            </Array>
          </mxGeometry>
        </mxCell>
        <mxCell id="l7Y0X0BqeV2ixzSoCU-9-14" value="" style="endArrow=classic;html=1;rounded=0;entryX=0;entryY=0.321;entryDx=0;entryDy=0;entryPerimeter=0;exitX=0.575;exitY=1.1;exitDx=0;exitDy=0;exitPerimeter=0;" parent="1" target="l7Y0X0BqeV2ixzSoCU-9-12" edge="1" source="l7Y0X0BqeV2ixzSoCU-9-6">
          <mxGeometry relative="1" as="geometry">
            <mxPoint x="350" y="330" as="sourcePoint" />
            <mxPoint x="350" y="350" as="targetPoint" />
            <Array as="points">
              <mxPoint x="350" y="500" />
            </Array>
          </mxGeometry>
        </mxCell>
      </root>
    </mxGraphModel>
  </diagram>
</mxfile>
